<?xml version="1.0" encoding="UTF-8" standalone="no"?>
<!-- Created with Inkscape (http://www.inkscape.org/) -->

<svg
   xmlns:dc="http://purl.org/dc/elements/1.1/"
   xmlns:cc="http://creativecommons.org/ns#"
   xmlns:rdf="http://www.w3.org/1999/02/22-rdf-syntax-ns#"
   xmlns:svg="http://www.w3.org/2000/svg"
   xmlns="http://www.w3.org/2000/svg"
   xmlns:sodipodi="http://sodipodi.sourceforge.net/DTD/sodipodi-0.dtd"
   xmlns:inkscape="http://www.inkscape.org/namespaces/inkscape"
   version="1.1"
   width="661.79822"
   height="637.58545"
   id="svg2"
   inkscape:version="0.48.1 "
   sodipodi:docname="concept_drawing.svg">
  <sodipodi:namedview
     pagecolor="#ffffff"
     bordercolor="#666666"
     borderopacity="1"
     objecttolerance="10"
     gridtolerance="10"
     guidetolerance="10"
     inkscape:pageopacity="0"
     inkscape:pageshadow="2"
     inkscape:window-width="1125"
     inkscape:window-height="727"
     id="namedview119"
     showgrid="false"
     inkscape:zoom="0.70710678"
     inkscape:cx="380.85813"
     inkscape:cy="334.31115"
     inkscape:window-x="105"
     inkscape:window-y="0"
     inkscape:window-maximized="0"
     inkscape:current-layer="layer1"
     fit-margin-top="0"
     fit-margin-left="0"
     fit-margin-right="0"
     fit-margin-bottom="0" />
  <defs
     id="defs4">
    <marker
       refX="0"
       refY="0"
       orient="auto"
       id="Arrow2Mstart"
       style="overflow:visible">
      <path
         d="M 8.7185878,4.0337352 -2.2072895,0.01601326 8.7185884,-4.0017078 c -1.7454984,2.3720609 -1.7354408,5.6174519 -6e-7,8.035443 z"
         transform="scale(0.6,0.6)"
         id="path3931"
         style="fill-rule:evenodd;stroke-width:0.625;stroke-linejoin:round"
         inkscape:connector-curvature="0" />
    </marker>
    <marker
       refX="0"
       refY="0"
       orient="auto"
       id="Arrow2Mend"
       style="overflow:visible">
      <path
         d="M 8.7185878,4.0337352 -2.2072895,0.01601326 8.7185884,-4.0017078 c -1.7454984,2.3720609 -1.7354408,5.6174519 -6e-7,8.035443 z"
         transform="scale(-0.6,-0.6)"
         id="path3934"
         style="fill-rule:evenodd;stroke-width:0.625;stroke-linejoin:round"
         inkscape:connector-curvature="0" />
    </marker>
    <marker
       refX="0"
       refY="0"
       orient="auto"
       id="Arrow2Send"
       style="overflow:visible">
      <path
         d="M 8.7185878,4.0337352 -2.2072895,0.01601326 8.7185884,-4.0017078 c -1.7454984,2.3720609 -1.7354408,5.6174519 -6e-7,8.035443 z"
         transform="matrix(-0.3,0,0,-0.3,0.69,0)"
         id="path3940"
         style="fill-rule:evenodd;stroke-width:0.625;stroke-linejoin:round"
         inkscape:connector-curvature="0" />
    </marker>
    <marker
       refX="0"
       refY="0"
       orient="auto"
       id="Arrow2Sstart"
       style="overflow:visible">
      <path
         d="M 8.7185878,4.0337352 -2.2072895,0.01601326 8.7185884,-4.0017078 c -1.7454984,2.3720609 -1.7354408,5.6174519 -6e-7,8.035443 z"
         transform="matrix(0.3,0,0,0.3,-0.69,0)"
         id="path3937"
         style="fill-rule:evenodd;stroke-width:0.625;stroke-linejoin:round"
         inkscape:connector-curvature="0" />
    </marker>
    <marker
       refX="0"
       refY="0"
       orient="auto"
       id="Arrow2Lend"
       style="overflow:visible">
      <path
         d="M 8.7185878,4.0337352 -2.2072895,0.01601326 8.7185884,-4.0017078 c -1.7454984,2.3720609 -1.7354408,5.6174519 -6e-7,8.035443 z"
         transform="matrix(-1.1,0,0,-1.1,-1.1,0)"
         id="path3928"
         style="fill-rule:evenodd;stroke-width:0.625;stroke-linejoin:round"
         inkscape:connector-curvature="0" />
    </marker>
    <marker
       refX="0"
       refY="0"
       orient="auto"
       id="Arrow2Lstart"
       style="overflow:visible">
      <path
         d="M 8.7185878,4.0337352 -2.2072895,0.01601326 8.7185884,-4.0017078 c -1.7454984,2.3720609 -1.7354408,5.6174519 -6e-7,8.035443 z"
         transform="matrix(1.1,0,0,1.1,1.1,0)"
         id="path3925"
         style="fill-rule:evenodd;stroke-width:0.625;stroke-linejoin:round"
         inkscape:connector-curvature="0" />
    </marker>
    <marker
       refX="0"
       refY="0"
       orient="auto"
       id="Arrow1Lend"
       style="overflow:visible">
      <path
         d="M 0,0 5,-5 -12.5,0 5,5 0,0 z"
         transform="matrix(-0.8,0,0,-0.8,-10,0)"
         id="path3910"
         style="fill-rule:evenodd;stroke:#000000;stroke-width:1pt"
         inkscape:connector-curvature="0" />
    </marker>
    <marker
       refX="0"
       refY="0"
       orient="auto"
       id="Arrow1Lstart"
       style="overflow:visible">
      <path
         d="M 0,0 5,-5 -12.5,0 5,5 0,0 z"
         transform="matrix(0.8,0,0,0.8,10,0)"
         id="path3907"
         style="fill-rule:evenodd;stroke:#000000;stroke-width:1pt"
         inkscape:connector-curvature="0" />
    </marker>
  </defs>
  <metadata
     id="metadata7">
    <rdf:RDF>
      <cc:Work
         rdf:about="">
        <dc:format>image/svg+xml</dc:format>
        <dc:type
           rdf:resource="http://purl.org/dc/dcmitype/StillImage" />
        <dc:title />
      </cc:Work>
    </rdf:RDF>
  </metadata>
  <g
     transform="translate(325.03763,-6.0635813)"
     id="layer1">
    <rect
       width="659.34766"
       height="635.13489"
       ry="21.213203"
       x="-323.81235"
       y="7.2888618"
       id="rect2985"
       style="fill:none;stroke:#000000;stroke-width:2.45056081;stroke-linejoin:miter;stroke-miterlimit:4;stroke-opacity:1;stroke-dasharray:none" />
    <rect
       width="322.44095"
       height="199.99843"
       x="-282.73468"
       y="93.251572"
       id="rect3755"
       style="fill:none;stroke:#000000;stroke-width:1;stroke-miterlimit:4;stroke-opacity:1;stroke-dasharray:none" />
    <g
       id="text3768"
       style="font-size:26.96072197px;font-style:normal;font-variant:normal;font-weight:normal;font-stretch:normal;text-align:center;line-height:133.00000429%;letter-spacing:0px;word-spacing:0px;text-anchor:middle;fill:#000000;fill-opacity:1;stroke:none;font-family:Maya;-inkscape-font-specification:Maya"
       transform="translate(-170.82843,0)">
      <path
         d="m -5.3858234,451.05756 -6.7006876,0 0,16.61349 -1.474414,0 0,-16.61349 -6.700687,0 0,-1.47442 14.8757886,0 0,1.47442"
         id="path7975"
         style="line-height:133.00000429%"
         inkscape:connector-curvature="0" />
      <path
         d="m 10.622105,461.28631 c -1.5e-5,1.75526 -0.6845635,3.22967 -2.0536488,4.42324 -1.3164527,1.14092 -2.8654639,1.71138 -4.6470385,1.71138 -1.7815902,0 -3.32621336,-0.57046 -4.63387411,-1.71138 -1.36910099,-1.19357 -2.05364989,-2.66798 -2.05364869,-4.42324 -1.2e-6,-1.75525 0.6845477,-3.22966 2.05364869,-4.42324 1.30766075,-1.14091 2.85228391,-1.71137 4.63387411,-1.71138 1.7815746,1e-5 3.3305858,0.57047 4.6470385,1.71138 1.3690853,1.19358 2.0536338,2.66799 2.0536488,4.42324 m -1.4744146,0 c -1.3e-5,-1.34276 -0.5441416,-2.46613 -1.6323874,-3.37009 -1.0268348,-0.86007 -2.2247953,-1.2901 -3.5938853,-1.29011 -1.3691056,1e-5 -2.5670662,0.43004 -3.59388532,1.29011 -1.07948516,0.90396 -1.61922568,2.02733 -1.61922308,3.37009 -2.6e-6,1.34278 0.53973792,2.46614 1.61922308,3.37009 1.02681912,0.86008 2.22477972,1.29011 3.59388532,1.29011 1.36909,0 2.5670505,-0.43003 3.5938853,-1.29011 1.0882458,-0.90395 1.6323744,-2.02731 1.6323874,-3.37009"
         id="path7977"
         style="line-height:133.00000429%"
         inkscape:connector-curvature="0" />
      <path
         d="m 21.956667,466.63106 -0.816194,1.23746 -6.845496,-4.52856 0,4.33109 -1.474414,0 0,-12.03227 0.789865,-0.73721 c 5.546599,0.35106 8.3199,1.68944 8.31991,4.01515 -10e-6,2.00977 -1.97467,3.27794 -5.923987,3.80451 l 5.950316,3.90983 m -1.500743,-7.71434 c -9e-6,-1.33399 -2.053656,-2.16335 -6.160947,-2.48808 l 0,4.98931 c 4.107291,-0.34226 6.160938,-1.17601 6.160947,-2.50123"
         id="path7979"
         style="line-height:133.00000429%"
         inkscape:connector-curvature="0" />
      <path
         d="m 40.636972,467.67105 -1.474414,0 0,-5.64753 -6.700688,0 0,5.64753 -1.474414,0 0,-12.76948 1.474414,0 0,5.64753 6.700688,0 0,-5.64753 1.474414,0 0,12.76948"
         id="path7981"
         style="line-height:133.00000429%"
         inkscape:connector-curvature="0" />
      <path
         d="m 45.099708,467.67105 -1.474414,0 0,-12.76948 1.474414,0 0,12.76948"
         id="path7983"
         style="line-height:133.00000429%"
         inkscape:connector-curvature="0" />
      <path
         d="m 57.368943,466.48625 -1.329606,0.44759 -6.463728,-8.63585 0,9.37306 -1.474414,0 0,-11.58468 1.329606,-0.44759 6.463728,8.63585 0,-9.37306 1.474414,0 0,11.58468"
         id="path7985"
         style="line-height:133.00000429%"
         inkscape:connector-curvature="0" />
      <path
         d="m 67.742502,456.02054 -6.213604,10.1761 5.923987,0 0,1.47441 -7.240428,0 -0.631892,-1.11897 6.213604,-10.1761 -5.923987,0 0,-1.47441 7.240428,0 0.631892,1.11897"
         id="path7987"
         style="line-height:133.00000429%"
         inkscape:connector-curvature="0" />
      <path
         d="m 81.894248,462.18149 c -1.3e-5,1.73771 -0.557306,3.12874 -1.671881,4.17312 -1.105821,1.04438 -2.531964,1.56656 -4.278435,1.56656 -1.746484,0 -3.172628,-0.52218 -4.278435,-1.56656 -1.105812,-1.04438 -1.658717,-2.43541 -1.658716,-4.17312 l 0,-7.27992 1.474415,0 0,7.27992 c -3e-6,1.32522 0.41687,2.37399 1.250619,3.1463 0.807413,0.74598 1.878118,1.11897 3.212117,1.11897 1.333986,0 2.413467,-0.37738 3.238446,-1.13214 0.824959,-0.76353 1.237444,-1.80791 1.237455,-3.13313 l 0,-7.27992 1.474415,0 0,7.27992"
         id="path7989"
         style="line-height:133.00000429%"
         inkscape:connector-curvature="0" />
      <path
         d="m 91.609585,462.02352 -6.016138,0 0,5.64753 -1.474415,0 0,-12.03227 0.737208,-0.73721 6.753345,0 0,1.47441 -6.016138,0 0,4.17312 6.016138,0 0,1.47442"
         id="path7991"
         style="line-height:133.00000429%"
         inkscape:connector-curvature="0" />
      <path
         d="m 105.74817,462.18149 c -2e-5,1.73771 -0.55731,3.12874 -1.67188,4.17312 -1.10582,1.04438 -2.53197,1.56656 -4.278438,1.56656 -1.746484,0 -3.172628,-0.52218 -4.278435,-1.56656 -1.105812,-1.04438 -1.658717,-2.43541 -1.658716,-4.17312 l 0,-7.27992 1.474415,0 0,7.27992 c -3e-6,1.32522 0.41687,2.37399 1.250619,3.1463 0.807413,0.74598 1.878118,1.11897 3.212117,1.11897 1.333988,0 2.413468,-0.37738 3.238448,-1.13214 0.82496,-0.76353 1.23744,-1.80791 1.23745,-3.13313 l 0,-7.27992 1.47442,0 0,7.27992"
         id="path7993"
         style="line-height:133.00000429%"
         inkscape:connector-curvature="0" />
      <path
         d="m 115.46351,467.67105 -6.75334,0 -0.73721,-0.73721 0,-11.29506 0.73721,-0.73721 6.75334,0 0,1.47441 -6.01614,0 0,4.17312 6.01614,0 0,1.47442 -6.01614,0 0,4.17312 6.01614,0 0,1.47441"
         id="path7995"
         style="line-height:133.00000429%"
         inkscape:connector-curvature="0" />
      <path
         d="m 128.62793,455.5203 -0.56607,1.35593 c -1.19358,-0.50024 -2.22918,-0.75036 -3.1068,-0.75037 -1.51831,1e-5 -2.84352,0.47393 -3.97566,1.42176 -1.19357,1.0005 -1.79036,2.24673 -1.79036,3.73869 0,1.49197 0.59679,2.7382 1.79036,3.73869 1.13214,0.94784 2.45735,1.42176 3.97566,1.42176 0.67576,0 1.33398,-0.10531 1.97466,-0.31595 l 0,-3.21211 -2.71187,0 0,-1.47442 3.44908,0 0.7372,0.73721 0,4.46274 -0.44759,0.68455 c -0.94784,0.39493 -1.94834,0.59239 -3.00148,0.59239 -1.93079,0 -3.60267,-0.61872 -5.01565,-1.85618 -1.48319,-1.29011 -2.22478,-2.883 -2.22478,-4.77868 0,-1.89567 0.74159,-3.48856 2.22478,-4.77868 1.41298,-1.23745 3.08486,-1.85617 5.01565,-1.85619 1.06192,2e-5 2.28621,0.28963 3.67287,0.86886"
         id="path7997"
         style="line-height:133.00000429%"
         inkscape:connector-curvature="0" />
      <path
         d="m 138.36959,467.67105 -6.75334,0 -0.73721,-0.73721 0,-11.29506 0.73721,-0.73721 6.75334,0 0,1.47441 -6.01613,0 0,4.17312 6.01613,0 0,1.47442 -6.01613,0 0,4.17312 6.01613,0 0,1.47441"
         id="path7999"
         style="line-height:133.00000429%"
         inkscape:connector-curvature="0" />
      <path
         d="m 149.88846,466.48625 -1.32961,0.44759 -6.46372,-8.63585 0,9.37306 -1.47442,0 0,-11.58468 1.32961,-0.44759 6.46372,8.63585 0,-9.37306 1.47442,0 0,11.58468"
         id="path8001"
         style="line-height:133.00000429%"
         inkscape:connector-curvature="0" />
      <path
         d="m 12.912713,486.91532 -6.7006868,0 0,16.61349 -1.4744144,0 0,-16.61349 -6.7006873,0 0,-1.47441 14.8757885,0 0,1.47441"
         id="path8003"
         style="line-height:133.00000429%"
         inkscape:connector-curvature="0" />
      <path
         d="m 28.920642,497.14407 c -1.5e-5,1.75526 -0.684564,3.22967 -2.053649,4.42324 -1.316453,1.14092 -2.865464,1.71138 -4.647038,1.71138 -1.781591,0 -3.326214,-0.57046 -4.633875,-1.71138 -1.3691,-1.19357 -2.053649,-2.66798 -2.053648,-4.42324 -10e-7,-1.75525 0.684548,-3.22966 2.053648,-4.42324 1.307661,-1.14091 2.852284,-1.71136 4.633875,-1.71138 1.781574,2e-5 3.330585,0.57047 4.647038,1.71138 1.369085,1.19358 2.053634,2.66799 2.053649,4.42324 m -1.474415,0 c -1.3e-5,-1.34276 -0.544141,-2.46612 -1.632387,-3.37009 -1.026835,-0.86006 -2.224795,-1.2901 -3.593885,-1.29011 -1.369106,10e-6 -2.567067,0.43005 -3.593886,1.29011 -1.079485,0.90397 -1.619225,2.02733 -1.619223,3.37009 -2e-6,1.34278 0.539738,2.46614 1.619223,3.37009 1.026819,0.86008 2.22478,1.29012 3.593886,1.29011 1.36909,1e-5 2.56705,-0.43003 3.593885,-1.29011 1.088246,-0.90395 1.632374,-2.02731 1.632387,-3.37009"
         id="path8005"
         style="line-height:133.00000429%"
         inkscape:connector-curvature="0" />
      <path
         d="m 40.255204,502.48882 -0.816194,1.23746 -6.845496,-4.52856 0,4.33109 -1.474414,0 0,-12.03227 0.789865,-0.73721 c 5.546599,0.35106 8.3199,1.68944 8.31991,4.01515 -1e-5,2.00977 -1.974671,3.27794 -5.923987,3.80451 l 5.950316,3.90983 m -1.500744,-7.71434 c -8e-6,-1.33399 -2.053655,-2.16334 -6.160946,-2.48808 l 0,4.98932 c 4.107291,-0.34227 6.160938,-1.17602 6.160946,-2.50124"
         id="path8007"
         style="line-height:133.00000429%"
         inkscape:connector-curvature="0" />
      <path
         d="m 61.752694,503.14704 -1.329606,0.61873 -2.000991,-4.30476 -5.792343,0 -2.014155,4.30476 -1.329606,-0.61873 5.568547,-11.96645 1.342771,0 5.555383,11.96645 m -4.015147,-5.16045 -2.211622,-4.73919 -2.211621,4.73919 4.423243,0"
         id="path8009"
         style="line-height:133.00000429%"
         inkscape:connector-curvature="0" />
      <path
         d="m 73.08725,499.97442 c -1e-5,2.06243 -2.777699,3.24722 -8.333074,3.55439 l -0.776701,-0.7372 0,-11.29507 0.776701,-0.73721 c 5.555375,0.31596 8.333064,1.50514 8.333074,3.56756 -1e-5,1.29889 -0.996116,2.23795 -2.988322,2.81718 1.992206,0.58802 2.988312,1.53147 2.988322,2.83035 m -1.474414,-5.64753 c -9e-6,-0.64066 -0.855695,-1.15407 -2.567061,-1.54024 -1.044382,-0.24573 -2.242343,-0.41247 -3.593885,-0.50025 l 0,4.08097 c 4.107291,-0.29839 6.160937,-0.97855 6.160946,-2.04048 m 0,5.64753 c -9e-6,-1.0707 -2.053655,-1.75525 -6.160946,-2.05365 l 0,4.08097 c 4.107291,-0.27206 6.160937,-0.94784 6.160946,-2.02732"
         id="path8011"
         style="line-height:133.00000429%"
         inkscape:connector-curvature="0" />
      <path
         d="m 83.460816,491.87831 -6.213604,10.17609 5.923987,0 0,1.47441 -7.240428,0 -0.631892,-1.11897 6.213604,-10.1761 -5.923987,0 0,-1.47441 7.240428,0 0.631892,1.11898"
         id="path8013"
         style="line-height:133.00000429%"
         inkscape:connector-curvature="0" />
      <path
         d="m 87.989374,503.52881 -1.474414,0 0,-12.76948 1.474414,0 0,12.76948"
         id="path8015"
         style="line-height:133.00000429%"
         inkscape:connector-curvature="0" />
      <path
         d="m 98.481409,503.52881 -6.753345,0 -0.737207,-0.7372 0,-11.29507 0.737207,-0.73721 6.753345,0 0,1.47441 -6.016137,0 0,4.17312 6.016137,0 0,1.47442 -6.016137,0 0,4.17312 6.016137,0 0,1.47441"
         id="path8017"
         style="line-height:133.00000429%"
         inkscape:connector-curvature="0" />
      <path
         d="m 110.38204,503.52881 -1.47441,0 0,-5.64753 -6.70069,0 0,5.64753 -1.47441,0 0,-12.76948 1.47441,0 0,5.64753 6.70069,0 0,-5.64753 1.47441,0 0,12.76948"
         id="path8019"
         style="line-height:133.00000429%"
         inkscape:connector-curvature="0" />
      <path
         d="m 120.07105,503.52881 -6.75334,0 -0.73721,-0.7372 0,-11.29507 0.73721,-0.73721 6.75334,0 0,1.47441 -6.01613,0 0,4.17312 6.01613,0 0,1.47442 -6.01613,0 0,4.17312 6.01613,0 0,1.47441"
         id="path8021"
         style="line-height:133.00000429%"
         inkscape:connector-curvature="0" />
      <path
         d="m 131.58991,502.34402 -1.3296,0.44759 -6.46373,-8.63586 0,9.37306 -1.47442,0 0,-11.58468 1.32961,-0.44759 6.46373,8.63585 0,-9.37306 1.47441,0 0,11.58469"
         id="path8023"
         style="line-height:133.00000429%"
         inkscape:connector-curvature="0" />
    </g>
    <g
       id="g4477"
       transform="translate(-136,122)">
      <g
         transform="translate(278.37381,-226.20328)"
         style="font-size:26.96072197px;font-style:normal;font-variant:normal;font-weight:normal;font-stretch:normal;text-align:start;line-height:125%;letter-spacing:0px;word-spacing:0px;text-anchor:start;fill:#000000;fill-opacity:1;stroke:none;font-family:Maya;-inkscape-font-specification:Maya"
         id="text3786">
        <path
           inkscape:connector-curvature="0"
           id="path7914"
           d="m 11.460136,333.22354 -0.724042,1.27695 c -2.1150946,-1.21111 -3.9844397,-1.81667 -5.6080413,-1.81669 -1.3252244,2e-5 -2.4222579,0.25014 -3.2911037,0.75037 -1.07070941,0.62313 -1.60606176,1.54903 -1.60605866,2.77769 -3.1e-6,1.58852 0.95661006,2.64606 2.86984246,3.17263 1.7815764,0.41249 3.5631588,0.82497 5.3447525,1.23745 1.9132147,0.75477 2.8698287,2.19846 2.8698427,4.33109 -1.4e-5,1.61484 -0.680175,2.89179 -2.0404845,3.83085 -1.2023609,0.83374 -2.646057,1.25062 -4.3310926,1.25062 -1.807919,0 -3.9186114,-0.46515 -6.3320836,-1.39543 l 0.52657659,-1.3691 c 2.19406501,0.86008 4.12923201,1.29011 5.80550701,1.29011 1.2549985,0 2.3432557,-0.28084 3.2647749,-0.84252 1.0882462,-0.66699 1.6323748,-1.5885 1.6323875,-2.76453 -1.27e-5,-1.63238 -0.9566259,-2.72064 -2.8698425,-3.26477 -1.7815922,-0.41248 -3.5631746,-0.82058 -5.3447525,-1.22429 -1.91323086,-0.7372 -2.8698441,-2.15457 -2.8698424,-4.25211 -1.7e-6,-1.66748 0.67138283,-2.94881 2.01415545,-3.84401 1.15846375,-0.77229 2.61093605,-1.15845 4.35742135,-1.15847 1.8693371,2e-5 3.9800295,0.67141 6.3320833,2.01416" />
        <path
           inkscape:connector-curvature="0"
           id="path7916"
           d="m 23.215959,340.91156 c -1e-5,2.26428 -2.545128,3.5895 -7.635361,3.97565 l 0,4.77868 -1.474414,0 0,-12.03227 0.789865,-0.73721 c 5.546599,0.35106 8.3199,1.68945 8.31991,4.01515 m -1.474415,0 c -8e-6,-1.33399 -2.053655,-2.16334 -6.160946,-2.48808 l 0,4.98932 c 4.107291,-0.34227 6.160938,-1.17602 6.160946,-2.50124" />
        <path
           inkscape:connector-curvature="0"
           id="path7918"
           d="m 27.69186,349.66589 -1.474415,0 0,-12.76948 1.474415,0 0,12.76948" />
        <path
           inkscape:connector-curvature="0"
           id="path7920"
           d="m 38.183899,349.66589 -6.753345,0 -0.737207,-0.7372 0,-11.29507 0.737207,-0.73721 6.753345,0 0,1.47442 -6.016138,0 0,4.17312 6.016138,0 0,1.47441 -6.016138,0 0,4.17312 6.016138,0 0,1.47441" />
        <path
           inkscape:connector-curvature="0"
           id="path7922"
           d="m 49.307831,349.66589 -8.135608,0 -0.737208,-0.7372 0,-12.03228 1.474415,0 0,11.29507 7.398401,0 0,1.47441" />
        <path
           inkscape:connector-curvature="0"
           id="path7924"
           d="m 71.489868,333.22354 -0.724043,1.27695 c -2.115094,-1.21111 -3.984439,-1.81667 -5.608041,-1.81669 -1.325224,2e-5 -2.422257,0.25014 -3.291103,0.75037 -1.07071,0.62313 -1.606062,1.54903 -1.606059,2.77769 -3e-6,1.58852 0.95661,2.64606 2.869843,3.17263 1.781576,0.41249 3.563158,0.82497 5.344752,1.23745 1.913215,0.75477 2.869828,2.19846 2.869843,4.33109 -1.5e-5,1.61484 -0.680175,2.89179 -2.040485,3.83085 -1.202361,0.83374 -2.646057,1.25062 -4.331092,1.25062 -1.807919,0 -3.918612,-0.46515 -6.332084,-1.39543 l 0.526577,-1.3691 c 2.194065,0.86008 4.129232,1.29011 5.805507,1.29011 1.254998,0 2.343255,-0.28084 3.264775,-0.84252 1.088246,-0.66699 1.632374,-1.5885 1.632387,-2.76453 -1.3e-5,-1.63238 -0.956626,-2.72064 -2.869842,-3.26477 -1.781593,-0.41248 -3.563175,-0.82058 -5.344753,-1.22429 -1.913231,-0.7372 -2.869844,-2.15457 -2.869842,-4.25211 -2e-6,-1.66748 0.671382,-2.94881 2.014155,-3.84401 1.158464,-0.77229 2.610936,-1.15845 4.357421,-1.15847 1.869338,2e-5 3.98003,0.67141 6.332084,2.01416" />
        <path
           inkscape:connector-curvature="0"
           id="path7926"
           d="m 85.66794,338.37083 -5.028806,0 0,11.29506 -1.474415,0 0,-11.29506 -5.028806,0 0,-1.47442 11.532027,0 0,1.47442" />
        <path
           inkscape:connector-curvature="0"
           id="path7928"
           d="m 100.34627,349.28413 -1.32961,0.61872 -2.000991,-4.30476 -5.792343,0 -2.014155,4.30476 -1.329606,-0.61872 5.568547,-11.96646 1.342771,0 5.555387,11.96646 m -4.015151,-5.16046 -2.211621,-4.73918 -2.211622,4.73918 4.423243,0" />
        <path
           inkscape:connector-curvature="0"
           id="path7930"
           d="m 111.70716,348.6259 -0.81619,1.23746 -6.8455,-4.52856 0,4.33109 -1.47441,0 0,-12.03227 0.78986,-0.73721 c 5.5466,0.35106 8.3199,1.68945 8.31991,4.01515 -1e-5,2.00977 -1.97467,3.27794 -5.92399,3.80451 l 5.95032,3.90983 m -1.50074,-7.71434 c -10e-6,-1.33399 -2.05366,-2.16334 -6.16095,-2.48808 l 0,4.98932 c 4.10729,-0.34227 6.16094,-1.17602 6.16095,-2.50124" />
        <path
           inkscape:connector-curvature="0"
           id="path7932"
           d="m 125.52979,338.37083 -5.0288,0 0,11.29506 -1.47442,0 0,-11.29506 -5.0288,0 0,-1.47442 11.53202,0 0,1.47442" />
        <path
           inkscape:connector-curvature="0"
           id="path7934"
           d="m 135.23196,349.66589 -6.75334,0 -0.73721,-0.7372 0,-11.29507 0.73721,-0.73721 6.75334,0 0,1.47442 -6.01613,0 0,4.17312 6.01613,0 0,1.47441 -6.01613,0 0,4.17312 6.01613,0 0,1.47441" />
        <path
           inkscape:connector-curvature="0"
           id="path7936"
           d="m 146.75083,348.4811 -1.32961,0.44759 -6.46373,-8.63586 0,9.37306 -1.47441,0 0,-11.58468 1.32961,-0.44759 6.46372,8.63585 0,-9.37306 1.47442,0 0,11.58469" />
      </g>
      <path
         inkscape:connector-curvature="0"
         style="fill:#373737;fill-opacity:1;stroke:#000000;stroke-width:1;stroke-linejoin:miter;stroke-miterlimit:4;stroke-opacity:1;stroke-dasharray:none"
         id="path3794"
         d="m 260.19376,114.41866 a 15.15229,15.15229 0 0 1 -30.30458,0 15.15229,15.15229 0 1 1 30.30458,0 z" />
    </g>
    <g
       id="g4578"
       transform="translate(-170.82843,0)">
      <path
         style="fill:#b5b5b5;fill-opacity:0.76847289;stroke:#000000;stroke-width:1;stroke-linejoin:miter;stroke-miterlimit:4;stroke-opacity:1;stroke-dasharray:none"
         id="path3794-0"
         transform="translate(-116.4752,140.20556)"
         d="m 357.594,320.59335 a 15.15229,15.15229 0 1 1 -30.30458,0 15.15229,15.15229 0 1 1 30.30458,0 z"
         inkscape:connector-curvature="0" />
      <path
         style="fill:#00009e;fill-opacity:0.76847289;stroke:#000000;stroke-width:1;stroke-linejoin:miter;stroke-miterlimit:4;stroke-opacity:1;stroke-dasharray:none"
         id="path3794-5"
         transform="translate(-439.18948,137.34842)"
         d="m 357.594,320.59335 a 15.15229,15.15229 0 1 1 -30.30458,0 15.15229,15.15229 0 1 1 30.30458,0 z"
         inkscape:connector-curvature="0" />
    </g>
    <g
       id="g4574"
       transform="translate(-170.82843,2)">
      <path
         style="fill:#b5b5b5;fill-opacity:0.76847289;stroke:#000000;stroke-width:1;stroke-linejoin:miter;stroke-miterlimit:4;stroke-opacity:1;stroke-dasharray:none"
         id="path3794-7-1"
         transform="translate(-116.4752,173.82202)"
         d="m 357.594,320.59335 a 15.15229,15.15229 0 1 1 -30.30458,0 15.15229,15.15229 0 1 1 30.30458,0 z"
         inkscape:connector-curvature="0" />
      <path
         style="fill:#00009e;fill-opacity:0.76847289;stroke:#000000;stroke-width:1;stroke-linejoin:miter;stroke-miterlimit:4;stroke-opacity:1;stroke-dasharray:none"
         id="path3794-7-6"
         transform="translate(-439.18948,170.96488)"
         d="m 357.594,320.59335 a 15.15229,15.15229 0 1 1 -30.30458,0 15.15229,15.15229 0 1 1 30.30458,0 z"
         inkscape:connector-curvature="0" />
    </g>
    <g
       id="text3776"
       style="font-size:26.96072197px;font-style:normal;font-variant:normal;font-weight:normal;font-stretch:normal;line-height:125%;letter-spacing:0px;word-spacing:0px;fill:#000000;fill-opacity:1;stroke:none;font-family:Maya;-inkscape-font-specification:Maya"
       transform="translate(-170.82843,0)">
      <path
         inkscape:connector-curvature="0"
         d="m -29.246319,551.51298 -8.596363,15.52085 8.161937,0 0,1.47441 -9.412557,0 -0.645056,-1.09265 8.596363,-15.52084 -8.161937,0 0,-1.47442 9.412557,0 0.645056,1.09265"
         id="path8026" />
      <path
         inkscape:connector-curvature="0"
         d="m -19.175542,568.50824 -6.753345,0 -0.737207,-0.73721 0,-11.29507 0.737207,-0.7372 6.753345,0 0,1.47441 -6.016138,0 0,4.17312 6.016138,0 0,1.47442 -6.016138,0 0,4.17312 6.016138,0 0,1.47441"
         id="path8028" />
      <path
         inkscape:connector-curvature="0"
         d="m -14.660149,568.50824 -1.474414,0 0,-12.76948 1.474414,0 0,12.76948"
         id="path8030" />
      <path
         inkscape:connector-curvature="0"
         d="m -0.12663464,557.21317 -5.02880656,0 0,11.29507 -1.4744145,0 0,-11.29507 -5.0288063,0 0,-1.47441 11.53202736,0 0,1.47441"
         id="path8032" />
      <path
         inkscape:connector-curvature="0"
         d="m 12.182096,556.96305 -0.671385,1.30327 c -1.6762774,-0.86884 -3.1155854,-1.30326 -4.3179278,-1.30327 -0.8864093,1e-5 -1.6367802,0.14043 -2.251115,0.42126 -0.8249732,0.37739 -1.2374578,0.95662 -1.237455,1.7377 -2.8e-6,0.98295 0.7196512,1.64117 2.1589641,1.97466 1.3339878,0.28085 2.6679805,0.56608 4.0019821,0.85569 1.4392986,0.55291 2.1589526,1.5929 2.1589636,3.11997 -1.1e-5,1.20235 -0.548527,2.14141 -1.645551,2.81718 -0.9302942,0.57924 -2.036104,0.86885 -3.317433,0.86885 -1.3866564,0 -3.045371,-0.33788 -4.9761489,-1.01366 l 0.473919,-1.39542 c 1.755252,0.62311 3.2559938,0.93467 4.5022299,0.93467 0.8337394,0 1.5797221,-0.15797 2.2379506,-0.47392 0.8337374,-0.41248 1.2506094,-0.99172 1.2506194,-1.7377 -10e-6,-1.01805 -0.7196636,-1.69382 -2.1589641,-2.02732 -1.3340001,-0.28961 -2.6679928,-0.57484 -4.0019821,-0.85569 -1.4393114,-0.54412 -2.1589654,-1.56656 -2.1589641,-3.06731 -1.3e-6,-1.23744 0.5441274,-2.18089 1.6323875,-2.83035 0.8951764,-0.53534 2.0053743,-0.80301 3.330597,-0.80303 1.4305254,2e-5 3.0936278,0.49149 4.9893128,1.47442"
         id="path8034" />
      <path
         inkscape:connector-curvature="0"
         d="m 25.938909,557.21317 -5.028806,0 0,11.29507 -1.474415,0 0,-11.29507 -5.028806,0 0,-1.47441 11.532027,0 0,1.47441"
         id="path8036" />
      <path
         inkscape:connector-curvature="0"
         d="m 37.286631,567.46825 -0.816194,1.23746 -6.845496,-4.52856 0,4.33109 -1.474414,0 0,-12.03228 0.789865,-0.7372 c 5.546599,0.35106 8.3199,1.68944 8.31991,4.01514 -1e-5,2.00978 -1.974671,3.27795 -5.923987,3.80452 l 5.950316,3.90983 m -1.500744,-7.71435 c -8e-6,-1.33398 -2.053655,-2.16334 -6.160946,-2.48807 l 0,4.98931 c 4.107291,-0.34227 6.160938,-1.17601 6.160946,-2.50124"
         id="path8038" />
      <path
         inkscape:connector-curvature="0"
         d="m 52.04394,568.12647 -1.329606,0.61873 -2.000991,-4.30476 -5.792343,0 -2.014155,4.30476 -1.329606,-0.61873 5.568547,-11.96645 1.342771,0 5.555383,11.96645 m -4.015147,-5.16045 -2.211622,-4.73919 -2.211621,4.73919 4.423243,0"
         id="path8040" />
      <path
         inkscape:connector-curvature="0"
         d="m 61.759281,562.86071 -6.016138,0 0,5.64753 -1.474414,0 0,-12.03228 0.737207,-0.7372 6.753345,0 0,1.47441 -6.016138,0 0,4.17312 6.016138,0 0,1.47442"
         id="path8042" />
      <path
         inkscape:connector-curvature="0"
         d="m 71.50095,568.50824 -6.753345,0 -0.737207,-0.73721 0,-11.29507 0.737207,-0.7372 6.753345,0 0,1.47441 -6.016138,0 0,4.17312 6.016138,0 0,1.47442 -6.016138,0 0,4.17312 6.016138,0 0,1.47441"
         id="path8044" />
      <path
         inkscape:connector-curvature="0"
         d="m 93.696155,552.06589 -0.724042,1.27694 c -2.115095,-1.21111 -3.98444,-1.81667 -5.608041,-1.81669 -1.325225,2e-5 -2.422258,0.25014 -3.291104,0.75038 -1.070709,0.62313 -1.606062,1.54902 -1.606059,2.77769 -3e-6,1.58852 0.956611,2.64606 2.869843,3.17262 1.781576,0.4125 3.563159,0.82498 5.344752,1.23746 1.913216,0.75476 2.869829,2.19846 2.869843,4.33109 -1.4e-5,1.61484 -0.680175,2.89178 -2.040484,3.83084 -1.202361,0.83375 -2.646057,1.25062 -4.331093,1.25062 -1.807919,0 -3.918611,-0.46514 -6.332084,-1.39542 l 0.526577,-1.3691 c 2.194065,0.86007 4.129232,1.29011 5.805507,1.29011 1.254999,0 2.343256,-0.28084 3.264775,-0.84252 1.088246,-0.667 1.632375,-1.58851 1.632387,-2.76453 -1.2e-5,-1.63238 -0.956625,-2.72064 -2.869842,-3.26478 -1.781592,-0.41247 -3.563175,-0.82057 -5.344753,-1.22429 -1.91323,-0.73719 -2.869844,-2.15456 -2.869842,-4.2521 -2e-6,-1.66748 0.671383,-2.94881 2.014155,-3.84401 1.158464,-0.7723 2.610937,-1.15845 4.357422,-1.15847 1.869337,2e-5 3.980029,0.6714 6.332083,2.01416"
         id="path8046" />
      <path
         inkscape:connector-curvature="0"
         d="m 107.87422,557.21317 -5.02881,0 0,11.29507 -1.47441,0 0,-11.29507 -5.028808,0 0,-1.47441 11.532028,0 0,1.47441"
         id="path8048" />
      <path
         inkscape:connector-curvature="0"
         d="m 122.55255,568.12647 -1.32961,0.61873 -2.00099,-4.30476 -5.79234,0 -2.01416,4.30476 -1.32961,-0.61873 5.56855,-11.96645 1.34277,0 5.55539,11.96645 m -4.01515,-5.16045 -2.21162,-4.73919 -2.21162,4.73919 4.42324,0"
         id="path8050" />
      <path
         inkscape:connector-curvature="0"
         d="m 133.91345,567.46825 -0.8162,1.23746 -6.84549,-4.52856 0,4.33109 -1.47442,0 0,-12.03228 0.78987,-0.7372 c 5.5466,0.35106 8.3199,1.68944 8.31991,4.01514 -1e-5,2.00978 -1.97467,3.27795 -5.92399,3.80452 l 5.95032,3.90983 m -1.50075,-7.71435 c -1e-5,-1.33398 -2.05365,-2.16334 -6.16094,-2.48807 l 0,4.98931 c 4.10729,-0.34227 6.16093,-1.17601 6.16094,-2.50124"
         id="path8052" />
      <path
         inkscape:connector-curvature="0"
         d="m 147.73608,557.21317 -5.0288,0 0,11.29507 -1.47442,0 0,-11.29507 -5.02881,0 0,-1.47441 11.53203,0 0,1.47441"
         id="path8054" />
      <path
         inkscape:connector-curvature="0"
         d="m 157.43824,568.50824 -6.75334,0 -0.73721,-0.73721 0,-11.29507 0.73721,-0.7372 6.75334,0 0,1.47441 -6.01613,0 0,4.17312 6.01613,0 0,1.47442 -6.01613,0 0,4.17312 6.01613,0 0,1.47441"
         id="path8056" />
      <path
         inkscape:connector-curvature="0"
         d="m 168.95711,567.32344 -1.32961,0.44759 -6.46373,-8.63585 0,9.37306 -1.47441,0 0,-11.58469 1.32961,-0.44759 6.46372,8.63586 0,-9.37306 1.47442,0 0,11.58468"
         id="path8058" />
    </g>
    <path
       inkscape:connector-curvature="0"
       d="m 70.29038,559.46428 a 15.15229,15.15229 0 0 1 -30.30458,0 15.15229,15.15229 0 1 1 30.30458,0 z"
       id="path3794-7-1-5"
       style="fill:#b5b5b5;fill-opacity:0.76847289;stroke:#000000;stroke-width:1;stroke-linejoin:miter;stroke-miterlimit:4;stroke-opacity:1;stroke-dasharray:none" />
    <path
       inkscape:connector-curvature="0"
       d="m -252.4239,559.46428 a 15.15229,15.15229 0 0 1 -30.30458,0 15.15229,15.15229 0 1 1 30.30458,0 z"
       id="path3794-7-1-2"
       style="fill:#00009e;fill-opacity:0.76847289;stroke:#000000;stroke-width:1;stroke-linejoin:miter;stroke-miterlimit:4;stroke-opacity:1;stroke-dasharray:none" />
    <g
       id="g4264"
       transform="translate(553.32714,-4.2426407)">
      <rect
         transform="matrix(0,1,-1,0,0,0)"
         style="fill:none;stroke:#000000;stroke-width:1;stroke-linejoin:miter;stroke-miterlimit:4;stroke-opacity:1;stroke-dasharray:none"
         id="rect3761"
         y="242.80049"
         x="35.111763"
         ry="6.0609155"
         height="63.63961"
         width="29.294424" />
      <text
         sodipodi:linespacing="125%"
         style="font-size:18px;font-style:normal;font-variant:normal;font-weight:normal;font-stretch:normal;line-height:125%;letter-spacing:0px;word-spacing:0px;fill:#000000;fill-opacity:1;stroke:none;font-family:Maya;-inkscape-font-specification:Maya"
         xml:space="preserve"
         id="text3893"
         y="56.117863"
         x="-292.79431"><tspan
           id="tspan3895"
           y="56.117863"
           x="-292.79431">0</tspan></text>
      <text
         sodipodi:linespacing="125%"
         style="font-size:18px;font-style:normal;font-variant:normal;font-weight:normal;font-stretch:normal;line-height:125%;letter-spacing:0px;word-spacing:0px;fill:#000000;fill-opacity:1;stroke:none;font-family:Maya;-inkscape-font-specification:Maya"
         xml:space="preserve"
         id="text3897"
         y="56.227726"
         x="-265.72754"><tspan
           id="tspan3899"
           y="56.227726"
           x="-265.72754">1</tspan></text>
    </g>
    <path
       d="m 357.594,320.59335 a 15.15229,15.15229 0 1 1 -30.30458,0 15.15229,15.15229 0 1 1 30.30458,0 z"
       transform="matrix(0.21280338,0,0,0.21280338,-375.35043,558.85913)"
       id="path3794-7-1-2-8"
       style="fill:#9e0000;fill-opacity:0.76847289;stroke:none"
       inkscape:connector-curvature="0" />
    <path
       d="m 357.594,320.59335 a 15.15229,15.15229 0 1 1 -30.30458,0 15.15229,15.15229 0 1 1 30.30458,0 z"
       transform="matrix(0.21280338,0,0,0.21280338,-366.06472,558.85913)"
       id="path3794-7-1-2-8-7"
       style="fill:#9e0000;fill-opacity:0.76847289;stroke:none"
       inkscape:connector-curvature="0" />
    <path
       d="m 357.594,320.59335 a 15.15229,15.15229 0 1 1 -30.30458,0 15.15229,15.15229 0 1 1 30.30458,0 z"
       transform="matrix(0.21280338,0,0,0.21280338,-356.95757,558.85913)"
       id="path3794-7-1-2-8-8"
       style="fill:#9e0000;fill-opacity:0.76847289;stroke:none"
       inkscape:connector-curvature="0" />
    <path
       d="m 357.594,320.59335 a 15.15229,15.15229 0 1 1 -30.30458,0 15.15229,15.15229 0 1 1 30.30458,0 z"
       transform="matrix(0.21280338,0,0,0.21280338,-335.65208,558.85913)"
       id="path3794-7-1-2-8-2"
       style="fill:#9e0000;fill-opacity:0.76847289;stroke:none"
       inkscape:connector-curvature="0" />
    <path
       d="m 357.594,320.59335 a 15.15229,15.15229 0 1 1 -30.30458,0 15.15229,15.15229 0 1 1 30.30458,0 z"
       transform="matrix(0.21280338,0,0,0.21280338,-326.81325,558.85913)"
       id="path3794-7-1-2-8-5"
       style="fill:#9e0000;fill-opacity:0.76847289;stroke:none"
       inkscape:connector-curvature="0" />
    <path
       inkscape:connector-curvature="0"
       d="m -252.4239,344.12656 a 15.152291,15.152291 0 0 1 -30.30458,0 15.152292,15.152292 0 1 1 30.30458,0 z"
       id="path3794-7-1-2-7"
       style="fill:#373737;fill-opacity:1;stroke:#000000;stroke-width:1;stroke-linejoin:miter;stroke-miterlimit:4;stroke-opacity:1;stroke-dasharray:none" />
    <text
       xml:space="preserve"
       style="font-size:24px;font-style:normal;font-variant:normal;font-weight:normal;font-stretch:normal;line-height:125%;letter-spacing:0px;word-spacing:0px;fill:#000000;fill-opacity:1;stroke:none;font-family:Droid Sans;-inkscape-font-specification:Droid Sans"
       x="-232.50174"
       y="352.85117"
       id="text3168"
       sodipodi:linespacing="125%"><tspan
         sodipodi:role="line"
         id="tspan3170"
         x="-232.50174"
         y="352.85117">Auszeit starten / beenden</tspan></text>
    <path
       inkscape:connector-curvature="0"
       d="m -252.4239,388.15889 a 15.152292,15.152292 0 0 1 -30.30458,0 15.152292,15.152292 0 1 1 30.30458,0 z"
       id="path3794-7-1-2-7-6"
       style="fill:#373737;fill-opacity:1;stroke:#000000;stroke-width:1;stroke-linejoin:miter;stroke-miterlimit:4;stroke-opacity:1;stroke-dasharray:none" />
    <text
       xml:space="preserve"
       style="font-size:24px;font-style:normal;font-variant:normal;font-weight:normal;font-stretch:normal;line-height:125%;letter-spacing:0px;word-spacing:0px;fill:#000000;fill-opacity:1;stroke:none;font-family:Droid Sans;-inkscape-font-specification:Droid Sans"
       x="-234.12674"
       y="397.21783"
       id="text3168-1"
       sodipodi:linespacing="125%"><tspan
         sodipodi:role="line"
         id="tspan3170-4"
         x="-234.12674"
         y="397.21783">Strafwurf starten / beenden</tspan></text>
    <g
       id="g3202"
       transform="translate(398.54543,-130.10765)">
      <text
         sodipodi:linespacing="125%"
         id="text3168-3-1-5-1"
         y="293.59375"
         x="-278.29968"
         style="font-size:16px;font-style:normal;font-variant:normal;font-weight:normal;font-stretch:normal;line-height:125%;letter-spacing:0px;word-spacing:0px;fill:#000000;fill-opacity:1;stroke:none;font-family:Droid Sans;-inkscape-font-specification:Droid Sans"
         xml:space="preserve"><tspan
           y="293.59375"
           x="-278.29968"
           id="tspan3170-2-6-7-8"
           sodipodi:role="line">Zurueck / Abbrechen</tspan></text>
      <path
         style="fill:#373737;fill-opacity:1;stroke:#000000;stroke-width:0.51110727;stroke-linejoin:miter;stroke-miterlimit:4;stroke-opacity:1;stroke-dasharray:none"
         id="path3794-7-1-2-7-2-2-8-9-9-4"
         d="m -289.41181,285.75996 a 7.7444464,7.7444464 0 0 1 -15.48888,0 7.7444464,7.7444464 0 1 1 15.48888,0 z"
         inkscape:connector-curvature="0" />
    </g>
    <g
       id="g4243"
       transform="translate(397.84142,10.339682)">
      <text
         sodipodi:linespacing="125%"
         id="text3168-3-1-3"
         y="179.90623"
         x="-277.76755"
         style="font-size:16px;font-style:normal;font-variant:normal;font-weight:normal;font-stretch:normal;line-height:125%;letter-spacing:0px;word-spacing:0px;fill:#000000;fill-opacity:1;stroke:none;font-family:Droid Sans;-inkscape-font-specification:Droid Sans"
         xml:space="preserve"><tspan
           y="179.90623"
           x="-277.76755"
           id="tspan3170-2-6-1"
           sodipodi:role="line">Spiel zuruecksetzen</tspan></text>
      <path
         style="fill:#373737;fill-opacity:1;stroke:#000000;stroke-width:0.51110727;stroke-linejoin:miter;stroke-miterlimit:4;stroke-opacity:1;stroke-dasharray:none"
         id="path3794-7-1-2-7-2-2-8-9-9-4-2"
         d="m -288.7078,175.75996 a 7.7444464,7.7444464 0 0 1 -15.48888,0 7.7444464,7.7444464 0 1 1 15.48888,0 z"
         inkscape:connector-curvature="0" />
    </g>
    <g
       id="g4472"
       transform="translate(-136.20287,78.233)">
      <text
         sodipodi:linespacing="125%"
         id="text3168-3-1"
         y="205.8237"
         x="276.3877"
         style="font-size:20px;font-style:normal;font-variant:normal;font-weight:normal;font-stretch:normal;line-height:125%;letter-spacing:0px;word-spacing:0px;fill:#000000;fill-opacity:1;stroke:none;font-family:Droid Sans;-inkscape-font-specification:Droid Sans"
         xml:space="preserve"><tspan
           style="font-size:24px"
           y="205.8237"
           x="276.3877"
           id="tspan3170-2-6"
           sodipodi:role="line">Zeit start/stop</tspan></text>
      <path
         inkscape:connector-curvature="0"
         style="fill:#373737;fill-opacity:1;stroke:#000000;stroke-width:1;stroke-linejoin:miter;stroke-miterlimit:4;stroke-opacity:1;stroke-dasharray:none"
         id="path3794-7-3"
         d="m 260.39663,199.86471 a 15.15229,15.15229 0 0 1 -30.30458,0 15.15229,15.15229 0 1 1 30.30458,0 z" />
    </g>
    <text
       xml:space="preserve"
       style="font-size:40px;font-style:normal;font-variant:normal;font-weight:normal;font-stretch:normal;line-height:125%;letter-spacing:0px;word-spacing:0px;fill:#000000;fill-opacity:1;stroke:none;font-family:Droid Sans;-inkscape-font-specification:Droid Sans"
       x="-268.48483"
       y="137.87292"
       id="text4299"
       sodipodi:linespacing="125%"><tspan
         sodipodi:role="line"
         id="tspan4301"
         x="-268.48483"
         y="137.87292">13:37</tspan></text>
    <g
       id="g4416"
       transform="translate(-170.82843,0)">
      <text
         sodipodi:linespacing="125%"
         id="text4299-1"
         y="283.51501"
         x="49.962662"
         style="font-size:32px;font-style:normal;font-variant:normal;font-weight:normal;font-stretch:normal;text-align:center;line-height:125%;letter-spacing:0px;word-spacing:0px;text-anchor:middle;fill:#000000;fill-opacity:1;stroke:none;font-family:Droid Sans;-inkscape-font-specification:Droid Sans"
         xml:space="preserve"><tspan
           y="283.51501"
           x="49.962662"
           id="tspan4301-3"
           sodipodi:role="line">Tore</tspan></text>
      <text
         sodipodi:linespacing="125%"
         id="text4299-1-8"
         y="283.51501"
         x="-98.640244"
         style="font-size:32px;font-style:normal;font-variant:normal;font-weight:normal;font-stretch:normal;line-height:125%;letter-spacing:0px;word-spacing:0px;fill:#000000;fill-opacity:1;stroke:none;font-family:Droid Sans;-inkscape-font-specification:Droid Sans"
         xml:space="preserve"><tspan
           y="283.51501"
           x="-98.640244"
           id="tspan4301-3-7"
           sodipodi:role="line">3</tspan></text>
      <text
         sodipodi:linespacing="125%"
         id="text4299-1-4"
         y="283.51501"
         x="198.05867"
         style="font-size:32px;font-style:normal;font-variant:normal;font-weight:normal;font-stretch:normal;text-align:end;line-height:125%;letter-spacing:0px;word-spacing:0px;text-anchor:end;fill:#000000;fill-opacity:1;stroke:none;font-family:Droid Sans;-inkscape-font-specification:Droid Sans"
         xml:space="preserve"><tspan
           y="283.51501"
           x="198.05867"
           id="tspan4301-3-2"
           sodipodi:role="line">1</tspan></text>
    </g>
    <text
       xml:space="preserve"
       style="font-size:40px;font-style:normal;font-variant:normal;font-weight:normal;font-stretch:normal;line-height:125%;letter-spacing:0px;word-spacing:0px;fill:#000000;fill-opacity:1;stroke:none;font-family:Droid Sans;-inkscape-font-specification:Droid Sans"
       x="-265.51889"
       y="177.50761"
       id="text4299-7"
       sodipodi:linespacing="125%"><tspan
         sodipodi:role="line"
         id="tspan4301-7"
         x="-265.51889"
         y="177.50761"
         style="font-size:32px">Auszeit 0:12</tspan></text>
    <text
       xml:space="preserve"
       style="font-size:32px;font-style:normal;font-variant:normal;font-weight:normal;font-stretch:normal;line-height:125%;letter-spacing:0px;word-spacing:0px;fill:#000000;fill-opacity:1;stroke:none;font-family:Droid Sans;-inkscape-font-specification:Droid Sans"
       x="-269.46869"
       y="249.60902"
       id="text4299-1-8-1"
       sodipodi:linespacing="125%"><tspan
         sodipodi:role="line"
         id="tspan4301-3-7-9"
         x="-269.46869"
         y="249.60902">--</tspan></text>
    <text
       xml:space="preserve"
       style="font-size:32px;font-style:normal;font-variant:normal;font-weight:normal;font-stretch:normal;text-align:end;line-height:125%;letter-spacing:0px;word-spacing:0px;text-anchor:end;fill:#000000;fill-opacity:1;stroke:none;font-family:Droid Sans;-inkscape-font-specification:Droid Sans"
       x="27.23024"
       y="249.60902"
       id="text4299-1-4-8"
       sodipodi:linespacing="125%"><tspan
         sodipodi:role="line"
         id="tspan4301-3-2-6"
         x="27.23024"
         y="249.60902">(1) 1:43</tspan></text>
    <text
       xml:space="preserve"
       style="font-size:32px;font-style:normal;font-variant:normal;font-weight:normal;font-stretch:normal;text-align:center;line-height:125%;letter-spacing:0px;word-spacing:0px;text-anchor:middle;fill:#000000;fill-opacity:1;stroke:none;font-family:Droid Sans;-inkscape-font-specification:Droid Sans"
       x="-121.00639"
       y="249.60902"
       id="text4299-1-9-5"
       sodipodi:linespacing="125%"><tspan
         sodipodi:role="line"
         id="tspan4301-3-3-0"
         x="-121.00639"
         y="249.60902">Zeitstr.</tspan></text>
    <g
       id="g4623"
       transform="translate(-170.82843,0)">
      <path
         style="fill:#b5b5b5;fill-opacity:0.76847289;stroke:#000000;stroke-width:1;stroke-linejoin:miter;stroke-miterlimit:4;stroke-opacity:1;stroke-dasharray:none"
         id="path3794-7-1-5-9"
         d="m 241.1188,600.87906 a 15.15229,15.15229 0 0 1 -30.30458,0 15.15229,15.15229 0 1 1 30.30458,0 z"
         inkscape:connector-curvature="0" />
      <path
         style="fill:#00009e;fill-opacity:0.76847289;stroke:#000000;stroke-width:1;stroke-linejoin:miter;stroke-miterlimit:4;stroke-opacity:1;stroke-dasharray:none"
         id="path3794-7-1-2-1"
         d="m -81.595477,600.87906 a 15.152292,15.152292 0 0 1 -30.304583,0 15.152292,15.152292 0 1 1 30.304583,0 z"
         inkscape:connector-curvature="0" />
      <text
         sodipodi:linespacing="125%"
         id="text3168-3-1-2"
         y="609.93964"
         x="-37.039066"
         style="font-size:20px;font-style:normal;font-variant:normal;font-weight:normal;font-stretch:normal;line-height:125%;letter-spacing:0px;word-spacing:0px;fill:#000000;fill-opacity:1;stroke:none;font-family:Droid Sans;-inkscape-font-specification:Droid Sans"
         xml:space="preserve"><tspan
           style="font-size:24px"
           y="609.93964"
           x="-37.039066"
           id="tspan3170-2-6-9"
           sodipodi:role="line">Zeitstrafe Beenden</tspan></text>
    </g>
    <g
       id="g4460"
       transform="translate(398.54543,-64.107648)">
      <path
         inkscape:connector-curvature="0"
         style="color:#000000;fill:none;stroke:#000000;stroke-width:1;stroke-linecap:butt;stroke-linejoin:miter;stroke-miterlimit:4;stroke-opacity:1;stroke-dasharray:none;stroke-dashoffset:0;marker:none;visibility:visible;display:inline;overflow:visible;enable-background:accumulate"
         id="path3759"
         d="m -256.16893,169.70323 a 24.243662,24.243662 0 1 1 -48.48732,0 24.243662,24.243662 0 1 1 48.48732,0 z" />
      <g
         transform="translate(0,2.8860557)"
         id="g4450">
        <g
           id="g4444">
          <text
             sodipodi:linespacing="125%"
             id="text3168-3"
             y="161.78629"
             x="-204.17256"
             style="font-size:20px;font-style:normal;font-variant:normal;font-weight:normal;font-stretch:normal;line-height:125%;letter-spacing:0px;word-spacing:0px;fill:#000000;fill-opacity:1;stroke:none;font-family:Droid Sans;-inkscape-font-specification:Droid Sans"
             xml:space="preserve"><tspan
               y="161.78629"
               x="-204.17256"
               id="tspan3170-41"
               sodipodi:role="line">+ / -</tspan></text>
          <text
             sodipodi:linespacing="125%"
             id="text3168-3-1-5-7"
             y="185.61058"
             x="-204.73116"
             style="font-size:16px;font-style:normal;font-variant:normal;font-weight:normal;font-stretch:normal;line-height:125%;letter-spacing:0px;word-spacing:0px;fill:#000000;fill-opacity:1;stroke:none;font-family:Droid Sans;-inkscape-font-specification:Droid Sans"
             xml:space="preserve"><tspan
               style="font-size:16px"
               y="185.61058"
               x="-204.73116"
               id="tspan3170-2-6-7-4"
               sodipodi:role="line">Enter / OK</tspan></text>
        </g>
        <g
           id="g4440"
           transform="translate(10,0)">
          <path
             inkscape:connector-curvature="0"
             style="color:#000000;fill:none;stroke:#000000;stroke-width:0.5;stroke-linecap:butt;stroke-linejoin:miter;stroke-miterlimit:4;stroke-opacity:1;stroke-dasharray:none;stroke-dashoffset:0;marker:none;marker-start:url(#Arrow2Mstart);visibility:visible;display:inline;overflow:visible;enable-background:accumulate"
             id="path6261"
             d="m -236.26065,156.06313 a 6.7811683,6.7811683 0 1 1 9.72558,4.73713" />
          <path
             inkscape:connector-curvature="0"
             id="path4226"
             d="m -230.2643,185.46322 0,-11.56279 -0.17727,0"
             style="fill:none;stroke:#000000;stroke-width:0.5;stroke-linecap:butt;stroke-linejoin:miter;stroke-miterlimit:4;stroke-opacity:1;stroke-dasharray:none;marker-start:url(#Arrow2Mstart)" />
        </g>
      </g>
    </g>
  </g>
</svg>
